<svg xmlns="http://www.w3.org/2000/svg" viewBox="-10 -10 1120 460" width="1120" height="460">
  <!-- Navy pin teardrop -->
  <path d="M 120 70 C 60 70 12 118 12 180 C 12 250 60 300 120 410 C 180 300 228 250 228 180 C 228 118 180 70 120 70 Z" fill="#1B2A4A"/>
  <!-- Cream ring -->
  <circle cx="120" cy="180" r="78" fill="none" stroke="#F6F1E7" stroke-width="2.5"/>
  <!-- 16-point gold compass star -->
  <polygon points="120,108 125.7,166.1 148.3,151.7 133.9,174.3 192,180 133.9,185.7 148.3,208.3 125.7,193.9 120,252 114.3,193.9 91.7,208.3 106.1,185.7 48,180 106.1,174.3 91.7,151.7 114.3,166.1" fill="#D4A843"/>

  <!-- Tier 1: personal info -->
  <text x="270" y="120" font-family="Georgia, serif" font-size="54" font-weight="700" fill="#4A5568">Matthew Allaire</text>

  <!-- LinkedIn circle badge (88x88) — top aligned with cap-top of name letters -->
  <g transform="translate(735, 81)">
    <circle cx="44" cy="44" r="42" fill="none" stroke="#4A5568" stroke-width="2.5"/>
    <text x="44" y="60" font-family="Arial, Helvetica, sans-serif" font-weight="700" font-size="46" fill="#1B2A4A" text-anchor="middle">in</text>
  </g>

  <!-- Phone circle badge (88x88) — top aligned with cap-top of name letters -->
  <g transform="translate(835, 81)">
    <circle cx="44" cy="44" r="42" fill="none" stroke="#4A5568" stroke-width="2.5"/>
    <path transform="translate(18, 18) scale(2.4)" d="M2 3a1 1 0 011-1h2.153a1 1 0 01.986.836l.74 4.435a1 1 0 01-.54 1.06l-1.548.773a11.037 11.037 0 006.105 6.105l.774-1.548a1 1 0 011.059-.54l4.435.74a1 1 0 01.836.986V17a1 1 0 01-1 1h-2C7.82 18 2 12.18 2 5V3z" fill="#1B2A4A"/>
  </g>

  <!-- ED right under name; font-size sized so baseline aligns with badge bottom (y=169) -->
  <text x="270" y="169" font-family="Arial, Helvetica, sans-serif" font-size="54" fill="#718096">Executive Director</text>

  <!-- Tier 2: brand wordmark -->
  <text x="270" y="320" font-family="Georgia, serif" font-size="74" font-weight="500" letter-spacing="3" fill="#1B2A4A">COMMONWEALTH</text>
  <text x="270" y="420" font-family="Georgia, serif" font-size="74" font-weight="500" letter-spacing="3" fill="#D4A843">IRL</text>
</svg>
