<svg xmlns="http://www.w3.org/2000/svg" viewBox="0 0 600 200">
  <!-- Pin teardrop -->
  <path d="M72 10 C40 10 12 38 12 70 C12 112 72 192 72 192 S132 112 132 70 C132 38 104 10 72 10 Z" fill="#1B2A4A"/>
  <!-- Circular compass seal outline -->
  <circle cx="72" cy="70" r="36" fill="none" stroke="#F6F1E7" stroke-width="1.5"/>

  <!-- 4 cardinal needles — GOLD, long, thin, reach the ring, drawn first -->
  <path d="M72 36 L75 53 L72 70 L69 53 Z" fill="#E8B64C"/>
  <path d="M72 104 L75 87 L72 70 L69 87 Z" fill="#E8B64C"/>
  <path d="M106 70 L89 67 L72 70 L89 73 Z" fill="#E8B64C"/>
  <path d="M38 70 L55 73 L72 70 L55 67 Z" fill="#E8B64C"/>

  <!-- 4 intercardinal needles — GOLD, medium length, thin diamonds -->
  <path d="M87 55 L82 65 L72 70 L77 60 Z" fill="#E8B64C"/>
  <path d="M87 85 L77 80 L72 70 L82 75 Z" fill="#E8B64C"/>
  <path d="M57 85 L67 80 L72 70 L62 75 Z" fill="#E8B64C"/>
  <path d="M57 55 L62 65 L72 70 L67 60 Z" fill="#E8B64C"/>

  <!-- Wordmark -->
  <text x="176" y="86" font-family="Georgia, serif" font-size="30" font-weight="700" fill="#1B2A4A" letter-spacing="5">COMMONWEALTH</text>
  <text x="176" y="144" font-family="Georgia, serif" font-size="42" font-weight="400" fill="#D4A843">IRL.</text>
</svg>
