<svg xmlns="http://www.w3.org/2000/svg" viewBox="0 0 600 200">
  <!-- Pin teardrop -->
  <path d="M72 10 C40 10 12 38 12 70 C12 112 72 192 72 192 S132 112 132 70 C132 38 104 10 72 10 Z" fill="#1B2A4A"/>
  <!-- Circular compass seal outline -->
  <circle cx="72" cy="70" r="36" fill="none" stroke="#F6F1E7" stroke-width="1.5"/>

  <!-- 4 cardinal diamonds — GOLD, fat, drawn first (underneath) -->
  <!-- North -->
  <path d="M72 34 L77 52 L72 70 L67 52 Z" fill="#E8B64C"/>
  <!-- South -->
  <path d="M72 106 L77 88 L72 70 L67 88 Z" fill="#E8B64C"/>
  <!-- East -->
  <path d="M108 70 L90 65 L72 70 L90 75 Z" fill="#E8B64C"/>
  <!-- West -->
  <path d="M36 70 L54 75 L72 70 L54 65 Z" fill="#E8B64C"/>

  <!-- 4 intercardinal diamonds — CREAM, fat, drawn on top -->
  <path d="M93 49 L85 62 L72 70 L80 57 Z" fill="#F6F1E7"/>
  <path d="M93 91 L85 78 L72 70 L80 83 Z" fill="#F6F1E7"/>
  <path d="M51 91 L59 78 L72 70 L64 83 Z" fill="#F6F1E7"/>
  <path d="M51 49 L59 62 L72 70 L64 57 Z" fill="#F6F1E7"/>

  <!-- Wordmark -->
  <text x="176" y="86" font-family="Georgia, serif" font-size="30" font-weight="700" fill="#1B2A4A" letter-spacing="5">COMMONWEALTH</text>
  <text x="176" y="144" font-family="Georgia, serif" font-size="42" font-weight="400" fill="#D4A843">IRL.</text>
</svg>
