<svg xmlns="http://www.w3.org/2000/svg" viewBox="0 0 600 200">
  <!-- Pin teardrop -->
  <path d="M72 10 C40 10 12 38 12 70 C12 112 72 192 72 192 S132 112 132 70 C132 38 104 10 72 10 Z" fill="#1B2A4A"/>
  <!-- Circular compass seal outline -->
  <circle cx="72" cy="70" r="36" fill="none" stroke="#F6F1E7" stroke-width="1.5"/>

  <!-- Cream intercardinals (NE/SE/SW/NW) — drawn FIRST (underneath) -->
  <path d="M97 45 L86 58 L72 70 L83 54 Z" fill="#F6F1E7"/>
  <path d="M97 95 L86 82 L72 70 L83 86 Z" fill="#F6F1E7"/>
  <path d="M47 95 L58 82 L72 70 L61 86 Z" fill="#F6F1E7"/>
  <path d="M47 45 L58 58 L72 70 L61 54 Z" fill="#F6F1E7"/>

  <!-- Gold cardinals (N/S/E/W) — drawn ON TOP -->
  <path d="M72 34 L82 52 L72 70 L62 52 Z" fill="#E8B64C"/>
  <path d="M72 106 L82 88 L72 70 L62 88 Z" fill="#E8B64C"/>
  <path d="M108 70 L90 60 L72 70 L90 80 Z" fill="#E8B64C"/>
  <path d="M36 70 L54 80 L72 70 L54 60 Z" fill="#E8B64C"/>

  <!-- Wordmark -->
  <text x="176" y="86" font-family="Georgia, serif" font-size="30" font-weight="700" fill="#1B2A4A" letter-spacing="5">COMMONWEALTH</text>
  <text x="176" y="144" font-family="Georgia, serif" font-size="42" font-weight="400" fill="#D4A843">IRL.</text>
</svg>
