<svg xmlns="http://www.w3.org/2000/svg" viewBox="-10 -10 1120 460" width="1120" height="460">
  <!-- Navy pin teardrop (shifted down for vertical centering) -->
  <path d="M 120 70 C 60 70 12 118 12 180 C 12 250 60 300 120 410 C 180 300 228 250 228 180 C 228 118 180 70 120 70 Z" fill="#1B2A4A"/>
  <!-- Cream ring -->
  <circle cx="120" cy="180" r="78" fill="none" stroke="#F6F1E7" stroke-width="2.5"/>
  <!-- 16-point gold compass star -->
  <polygon points="120,108 125.7,166.1 148.3,151.7 133.9,174.3 192,180 133.9,185.7 148.3,208.3 125.7,193.9 120,252 114.3,193.9 91.7,208.3 106.1,185.7 48,180 106.1,174.3 91.7,151.7 114.3,166.1" fill="#D4A843"/>

  <!-- Tier 1: personal info -->
  <text x="270" y="110" font-family="Georgia, serif" font-size="54" font-weight="700" fill="#4A5568">Matthew Allaire</text>
  <!-- LinkedIn badge next to name -->
  <g transform="translate(775, 73)">
    <rect width="42" height="42" rx="6" fill="#0A66C2"/>
    <text x="21" y="31" font-family="Arial, Helvetica, sans-serif" font-weight="900" font-size="26" fill="#fff" text-anchor="middle">in</text>
  </g>
  <text x="270" y="160" font-family="Arial, Helvetica, sans-serif" font-size="32" fill="#718096">Executive Director</text>
  <text x="270" y="200" font-family="Arial, Helvetica, sans-serif" font-size="32" fill="#718096">857-274-8952</text>

  <!-- Tier 2: brand wordmark — identical treatment; only color differs -->
  <text x="270" y="300" font-family="Georgia, serif" font-size="74" font-weight="500" letter-spacing="3" fill="#1B2A4A">COMMONWEALTH</text>
  <text x="270" y="400" font-family="Georgia, serif" font-size="74" font-weight="500" letter-spacing="3" fill="#D4A843">IRL</text>
</svg>
