<svg xmlns="http://www.w3.org/2000/svg" viewBox="0 0 600 200">
  <!-- Pin teardrop -->
  <path d="M72 10 C40 10 12 38 12 70 C12 112 72 192 72 192 S132 112 132 70 C132 38 104 10 72 10 Z" fill="#1B2A4A"/>
  <!-- Circular compass seal outline -->
  <circle cx="72" cy="70" r="36" fill="none" stroke="#F6F1E7" stroke-width="1.5"/>

  <!-- 4 intercardinal diamonds (NE, SE, SW, NW) - cream, taper to point at center -->
  <path d="M93 49 L83 61 L72 70 L82 60 Z" fill="#F6F1E7"/>
  <path d="M93 91 L82 80 L72 70 L83 79 Z" fill="#F6F1E7"/>
  <path d="M51 91 L61 79 L72 70 L62 80 Z" fill="#F6F1E7"/>
  <path d="M51 49 L62 60 L72 70 L61 61 Z" fill="#F6F1E7"/>

  <!-- 4 cardinal diamonds - taper to point at center -->
  <!-- South -->
  <path d="M72 106 L74 88 L72 70 L70 88 Z" fill="#F6F1E7"/>
  <!-- East -->
  <path d="M108 70 L90 68 L72 70 L90 72 Z" fill="#F6F1E7"/>
  <!-- West -->
  <path d="M36 70 L54 72 L72 70 L54 68 Z" fill="#F6F1E7"/>
  <!-- North (gold) -->
  <path d="M72 34 L74 52 L72 70 L70 52 Z" fill="#E8B64C"/>

  <!-- Wordmark -->
  <text x="176" y="86" font-family="Georgia, serif" font-size="30" font-weight="700" fill="#1B2A4A" letter-spacing="5">COMMONWEALTH</text>
  <text x="176" y="144" font-family="Georgia, serif" font-size="42" font-weight="400" fill="#D4A843">IRL.</text>
</svg>
