<svg xmlns="http://www.w3.org/2000/svg" viewBox="0 0 600 200">
  <!-- Pin teardrop -->
  <path d="M72 10 C40 10 12 38 12 70 C12 112 72 192 72 192 S132 112 132 70 C132 38 104 10 72 10 Z" fill="#1B2A4A"/>
  <!-- Circular compass seal outline -->
  <circle cx="72" cy="70" r="36" fill="none" stroke="#F6F1E7" stroke-width="1.5"/>

  <!-- 3 secondary cardinals (S/E/W) — GOLD, fat, drawn first (underneath) -->
  <path d="M72 106 L79 88 L72 70 L65 88 Z" fill="#E8B64C"/>
  <path d="M108 70 L90 63 L72 70 L90 77 Z" fill="#E8B64C"/>
  <path d="M36 70 L54 77 L72 70 L54 63 Z" fill="#E8B64C"/>
  <!-- North: elongated arrow, sharper, extends above circle ring -->
  <path d="M72 20 L76 50 L72 70 L68 50 Z" fill="#E8B64C"/>

  <!-- 4 intercardinal diamonds — CREAM, on top -->
  <path d="M97 45 L89 62 L72 70 L80 53 Z" fill="#F6F1E7"/>
  <path d="M97 95 L89 78 L72 70 L80 87 Z" fill="#F6F1E7"/>
  <path d="M47 95 L55 78 L72 70 L64 87 Z" fill="#F6F1E7"/>
  <path d="M47 45 L55 62 L72 70 L64 53 Z" fill="#F6F1E7"/>

  <!-- Wordmark -->
  <text x="176" y="86" font-family="Georgia, serif" font-size="30" font-weight="700" fill="#1B2A4A" letter-spacing="5">COMMONWEALTH</text>
  <text x="176" y="144" font-family="Georgia, serif" font-size="42" font-weight="400" fill="#D4A843">IRL.</text>
</svg>
