<svg xmlns="http://www.w3.org/2000/svg" viewBox="0 0 600 200">
  <!-- Pin teardrop -->
  <path d="M72 10 C40 10 12 38 12 70 C12 112 72 192 72 192 S132 112 132 70 C132 38 104 10 72 10 Z" fill="#1B2A4A"/>
  <!-- Circular compass seal outline -->
  <circle cx="72" cy="70" r="36" fill="none" stroke="#F6F1E7" stroke-width="1.5"/>

  <!-- 4 cardinal diamonds — GOLD, drawn first (underneath) -->
  <path d="M72 34 L77 52 L72 70 L67 52 Z" fill="#E8B64C"/>
  <path d="M72 106 L77 88 L72 70 L67 88 Z" fill="#E8B64C"/>
  <path d="M108 70 L90 65 L72 70 L90 75 Z" fill="#E8B64C"/>
  <path d="M36 70 L54 75 L72 70 L54 65 Z" fill="#E8B64C"/>

  <!-- 4 intercardinal diamonds — CREAM, full length, fat, on top -->
  <!-- NE -->
  <path d="M97 45 L88 61 L72 70 L81 54 Z" fill="#F6F1E7"/>
  <!-- SE -->
  <path d="M97 95 L88 79 L72 70 L81 86 Z" fill="#F6F1E7"/>
  <!-- SW -->
  <path d="M47 95 L56 79 L72 70 L63 86 Z" fill="#F6F1E7"/>
  <!-- NW -->
  <path d="M47 45 L56 61 L72 70 L63 54 Z" fill="#F6F1E7"/>

  <!-- Wordmark -->
  <text x="176" y="86" font-family="Georgia, serif" font-size="30" font-weight="700" fill="#1B2A4A" letter-spacing="5">COMMONWEALTH</text>
  <text x="176" y="144" font-family="Georgia, serif" font-size="42" font-weight="400" fill="#D4A843">IRL.</text>
</svg>
