<svg xmlns="http://www.w3.org/2000/svg" viewBox="0 0 600 200">
  <!-- Pin teardrop -->
  <path d="M72 10 C40 10 12 38 12 70 C12 112 72 192 72 192 S132 112 132 70 C132 38 104 10 72 10 Z" fill="#1B2A4A"/>
  <!-- Circular compass seal outline -->
  <circle cx="72" cy="70" r="36" fill="none" stroke="#F6F1E7" stroke-width="1.5"/>

  <!-- 4 intercardinal diamonds (NE/SE/SW/NW) — GOLD, shorter, thinner -->
  <path d="M89 53 L78 59 L72 70 L83 64 Z" fill="#E8B64C"/>
  <path d="M89 87 L83 76 L72 70 L78 81 Z" fill="#E8B64C"/>
  <path d="M55 87 L61 76 L72 70 L66 81 Z" fill="#E8B64C"/>
  <path d="M55 53 L66 59 L72 70 L61 64 Z" fill="#E8B64C"/>

  <!-- 4 cardinal diamonds (N/S/E/W) — GOLD, longer, fatter -->
  <path d="M72 34 L80 52 L72 70 L64 52 Z" fill="#E8B64C"/>
  <path d="M72 106 L80 88 L72 70 L64 88 Z" fill="#E8B64C"/>
  <path d="M108 70 L90 62 L72 70 L90 78 Z" fill="#E8B64C"/>
  <path d="M36 70 L54 78 L72 70 L54 62 Z" fill="#E8B64C"/>

  <!-- Wordmark -->
  <text x="176" y="86" font-family="Georgia, serif" font-size="30" font-weight="700" fill="#1B2A4A" letter-spacing="5">COMMONWEALTH</text>
  <text x="176" y="144" font-family="Georgia, serif" font-size="42" font-weight="400" fill="#D4A843">IRL.</text>
</svg>
